<svg id="Camada_1" data-name="Camada 1" xmlns="http://www.w3.org/2000/svg" viewBox="0 0 375.12 375.12"><defs><style>.cls-1{fill:#fff;}</style></defs><path class="cls-1" d="M772,727.12V352h375.12V727.12ZM943.92,569.53V559.36c0-1.65,0-1.68,1.62-1.76A23.06,23.06,0,1,0,939.22,512c-12,2.72-20.51,14.34-17.8,28.6,1.85,9.78,7,17.62,14.58,24A32,32,0,0,0,943.92,569.53Zm116.49-14.64c.45,0,.92-.06,1.38-.06h19.9c1.53,0,1.81-.28,1.79-1.82-.11-8.48-4.92-15.14-13.4-16.12-5.43-.63-10.33.59-14.21,4.69a16.21,16.21,0,0,0-4.25,10.67c-.29,5,.85,9.56,4.45,13.19,4.63,4.68,10.34,5.67,16.58,4.39a20.27,20.27,0,0,0,8.35-4c.59-.46,1.17-1,.52-1.78q-1.66-2.12-3.35-4.22a1,1,0,0,0-1.56-.2c-.39.28-.78.56-1.19.81-3,1.86-6.23,2.86-9.79,1.74A7.33,7.33,0,0,1,1060.41,554.89Zm-197.1-4-1.48-.3a19.9,19.9,0,0,0-9.7.12c-3.88,1.11-6.75,3.37-7.49,7.54-.65,3.71.12,7.09,3.17,9.63,4.41,3.66,12,3.23,16-.9l1-1.09c.32,1,.6,1.68.81,2.43a1.73,1.73,0,0,0,1.93,1.4c1.16,0,2.32,0,3.48,0s1.59-.48,1.59-1.6c0-6.47.07-12.94,0-19.41-.1-6.3-3.45-10.19-9.63-11.46-5.43-1.13-10.71-.24-15.92,1.29-1,.28-1,1-.78,1.8.43,1.37.88,2.74,1.32,4.1s.71,1.48,2.18,1.1a47.21,47.21,0,0,1,7.1-1.5C861.67,543.58,864.16,546.31,863.31,550.87Zm144,14.94.45.29c.25.74.54,1.46.74,2.22a1.71,1.71,0,0,0,1.94,1.38c1.08,0,2.16,0,3.24,0,1.47,0,1.74-.28,1.74-1.75,0-6.43,0-12.87,0-19.3,0-5.73-3-9.64-8.49-11.15-5.79-1.58-11.47-.61-17.08,1a1.11,1.11,0,0,0-.8,1.59c.4,1.21.78,2.43,1.17,3.64.73,2.28.77,2.29,3,1.52a20,20,0,0,1,8.33-1.25c3.52.29,5.93,3.91,4.47,6.83l-1.38-.3a19.54,19.54,0,0,0-10.51.39c-3.65,1.27-6.16,3.69-6.74,7.66-.51,3.52.3,6.7,3.09,9.11,4.44,3.83,12.13,3.44,16.18-.79A6.22,6.22,0,0,0,1007.26,565.81ZM829.42,536.73c-9.33-.11-16.75,6-17.62,14.67-.64,6.31,1.29,11.6,6.43,15.46,4.18,3.14,9,3.94,14.08,3.25a16.78,16.78,0,0,0,9.47-4.49c.75-.71.79-1.27,0-2-1.26-1.16-2.48-2.36-3.72-3.55s-1.4-1.33-2.77,0a8.71,8.71,0,0,1-10.91.93,9.33,9.33,0,0,1-1.84-13.26,8.6,8.6,0,0,1,13-.51c.8.78,1.42.83,2.22,0,1.27-1.27,2.61-2.47,3.9-3.73,1-1,1-1.28,0-2.22A17.64,17.64,0,0,0,829.42,536.73Zm189.39,16.81a15.69,15.69,0,0,0,6.42,13.26c4.29,3.2,9.21,4,14.42,3.27a16.55,16.55,0,0,0,9.14-4.38c.94-.89.94-1.23,0-2.15-1.29-1.26-2.64-2.45-3.88-3.74-.84-.88-1.45-.79-2.28,0a8.62,8.62,0,0,1-10.54,1.53,9.1,9.1,0,0,1-4.12-10,8.66,8.66,0,0,1,14.56-4.25c1.14,1.09,1.36,1.1,2.47.06s2.44-2.3,3.65-3.46,1.13-1.5,0-2.52c-4.37-3.83-9.5-5-15.16-4.21C1024.73,538.12,1018.8,544.82,1018.81,553.54Zm77.73,17c2.11-.25,3.6-.31,5-.62,3.23-.71,6.12-2.09,7.54-5.3,2.08-4.67,1.3-9.72-4.17-12.77-2.09-1.17-4.34-2-6.49-3.06a12.44,12.44,0,0,1-2.74-1.66,1.67,1.67,0,0,1,.65-3,8.7,8.7,0,0,1,3.41-.15,43.12,43.12,0,0,1,5,1.2c1,.29,1.67,0,2-1.07.39-1.42.8-2.84,1.24-4.24.31-1,0-1.53-1-1.73-2.14-.43-4.26-1-6.43-1.28a16.64,16.64,0,0,0-9.55,1.5c-5.35,2.72-7.18,11.28-1.35,15.4a69.75,69.75,0,0,0,7.2,4c1.09.58,2.22,1.09,3.28,1.73a1.76,1.76,0,0,1,.74,2.39,2.84,2.84,0,0,1-2.76,1.55,23.62,23.62,0,0,1-8.34-1.28c-1-.31-1.58,0-1.88,1-.42,1.37-.91,2.72-1.35,4.08s-.31,1.64,1.1,1.9C1090.78,569.63,1094,570.11,1096.54,570.52ZM911.73,552.64h-.14c0-2.23,0-4.47,0-6.71,0-1,.23-1.53,1.4-1.44,1.35.1,2.71,0,4.07,0a1.23,1.23,0,0,0,1.41-1.38c0-1.43,0-2.87,0-4.31,0-.92-.38-1.4-1.37-1.38-1.36,0-2.72-.06-4.07,0-1.13.07-1.46-.37-1.44-1.45,0-2.63,0-5.27,0-7.91,0-1.14-.45-1.58-1.56-1.56-2,0-3.92,0-5.88,0-1.41,0-1.61.26-1.61,1.72q0,3.18,0,6.35c0,2.63,0,2.65-2.63,2.8-.85,0-1.23.42-1.21,1.26,0,1.08,0,2.16,0,3.24,0,2.55,0,2.59,2.57,2.55,1,0,1.31.26,1.3,1.27-.05,5.07,0,10.15,0,15.22a8.7,8.7,0,0,0,6.18,8.61,17.45,17.45,0,0,0,9.56.22,1.26,1.26,0,0,0,1.09-1.74c-.36-1.47-.77-2.93-1.15-4.39-.23-.87-.74-1.11-1.62-.93a9.41,9.41,0,0,1-2.25.17,2.37,2.37,0,0,1-2.62-2.38C911.65,557.91,911.73,555.28,911.73,552.64ZM969,544h0c0,5.75-.08,11.5,0,17.25a8.31,8.31,0,0,0,5.4,8,16.61,16.61,0,0,0,10.45.47,1.16,1.16,0,0,0,1-1.6c-.36-1.51-.77-3-1.18-4.51-.23-.85-.74-1.09-1.63-.9a9.37,9.37,0,0,1-2.37.15,2.33,2.33,0,0,1-2.46-2.15,19.09,19.09,0,0,1-.19-3.21q0-15.45,0-30.91c0-1.55-.12-1.66-1.63-1.67h-5.75c-1.5,0-1.63.13-1.63,1.66Zm-83.63-2.34c-.37-1.15-.68-2-.94-3a1.54,1.54,0,0,0-1.73-1.28,33.07,33.07,0,0,1-3.59,0c-1.14-.06-1.55.4-1.55,1.54q.06,14.61,0,29.23c0,1.11.5,1.5,1.52,1.5,1.88,0,3.75,0,5.63,0,1.68,0,1.88-.19,1.88-1.83,0-5,0-9.91,0-14.86a23.15,23.15,0,0,1,.24-3.22,5.43,5.43,0,0,1,6.18-5,11.82,11.82,0,0,1,1.89.3c1.07.31,1.56-.11,1.8-1.13.39-1.66.87-3.31,1.28-5,.33-1.31.07-1.7-1.29-2a10,10,0,0,0-9.39,2.58C886.68,540.17,886.13,540.84,885.35,541.67Z" transform="translate(-772 -352)"/><path d="M943.92,569.53A32,32,0,0,1,936,564.6c-7.54-6.35-12.73-14.19-14.58-24-2.71-14.26,5.8-25.88,17.8-28.6a23.06,23.06,0,1,1,6.32,45.57c-1.62.08-1.62.11-1.62,1.76Zm.39-49.83c-8.56-.13-14.92,7.32-14.85,15a14.88,14.88,0,0,0,29.76-.31C959.15,527,953,519.55,944.31,519.7Z" transform="translate(-772 -352)"/><path d="M1060.41,554.89a7.33,7.33,0,0,0,5.22,7.29c3.56,1.12,6.76.12,9.79-1.74.41-.25.8-.53,1.19-.81a1,1,0,0,1,1.56.2q1.68,2.1,3.35,4.22c.65.82.07,1.32-.52,1.78a20.27,20.27,0,0,1-8.35,4c-6.24,1.28-12,.29-16.58-4.39-3.6-3.63-4.74-8.2-4.45-13.19a16.21,16.21,0,0,1,4.25-10.67c3.88-4.1,8.78-5.32,14.21-4.69,8.48,1,13.29,7.64,13.4,16.12,0,1.54-.26,1.82-1.79,1.82h-19.9C1061.33,554.83,1060.86,554.87,1060.41,554.89Zm.59-6h13.17a5.68,5.68,0,0,0-5.6-5.1C1064.66,543.64,1061.59,545.65,1061,548.9Z" transform="translate(-772 -352)"/><path d="M863.31,550.87c.85-4.56-1.64-7.29-6.42-6.86a47.21,47.21,0,0,0-7.1,1.5c-1.47.38-1.7.35-2.18-1.1s-.89-2.73-1.32-4.1c-.26-.82-.19-1.52.78-1.8,5.21-1.53,10.49-2.42,15.92-1.29,6.18,1.27,9.53,5.16,9.63,11.46.11,6.47,0,12.94,0,19.41,0,1.12-.5,1.62-1.59,1.6s-2.32,0-3.48,0a1.73,1.73,0,0,1-1.93-1.4c-.21-.75-.49-1.48-.81-2.43l-1,1.09c-4,4.13-11.6,4.56-16,.9-3-2.54-3.82-5.92-3.17-9.63.74-4.17,3.61-6.43,7.49-7.54a19.9,19.9,0,0,1,9.7-.12Zm.38,7.34c-.25-.59-.39-1.61-.78-1.71a10.29,10.29,0,0,0-7.25.23,3.76,3.76,0,0,0-2.16,3.82,3.66,3.66,0,0,0,2.7,3.3C860,565,863.43,562.42,863.69,558.21Z" transform="translate(-772 -352)"/><path d="M1007.26,565.81a6.22,6.22,0,0,1-.66,1.12c-4.05,4.23-11.74,4.62-16.18.79-2.79-2.41-3.6-5.59-3.09-9.11.58-4,3.09-6.39,6.74-7.66a19.54,19.54,0,0,1,10.51-.39l1.38.3c1.46-2.92-1-6.54-4.47-6.83a20,20,0,0,0-8.33,1.25c-2.23.77-2.27.76-3-1.52-.39-1.21-.77-2.43-1.17-3.64a1.11,1.11,0,0,1,.8-1.59c5.61-1.65,11.29-2.62,17.08-1,5.54,1.51,8.47,5.42,8.49,11.15,0,6.43,0,12.87,0,19.3,0,1.47-.27,1.74-1.74,1.75-1.08,0-2.16,0-3.24,0a1.71,1.71,0,0,1-1.94-1.38c-.2-.76-.49-1.48-.74-2.22Zm-5-9.89a23.24,23.24,0,0,0-2.85.44,3.91,3.91,0,0,0,1,7.73c4.61,0,6.12-3.36,5.85-7,0-.29-.53-.69-.86-.76C1004.38,556.15,1003.35,556.07,1002.21,555.92Z" transform="translate(-772 -352)"/><path d="M829.42,536.73a17.64,17.64,0,0,1,12.24,4.6c1,.94,1,1.23,0,2.22-1.29,1.26-2.63,2.46-3.9,3.73-.8.79-1.42.74-2.22,0a8.6,8.6,0,0,0-13,.51A9.33,9.33,0,0,0,824.4,561a8.71,8.71,0,0,0,10.91-.93c1.37-1.32,1.38-1.32,2.77,0s2.46,2.39,3.72,3.55c.77.71.73,1.27,0,2a16.78,16.78,0,0,1-9.47,4.49c-5.07.69-9.9-.11-14.08-3.25-5.14-3.86-7.07-9.15-6.43-15.46C812.67,542.75,820.09,536.62,829.42,536.73Z" transform="translate(-772 -352)"/><path d="M1018.81,553.54c0-8.72,5.92-15.42,14.63-16.58,5.66-.75,10.79.38,15.16,4.21,1.17,1,1.17,1.43,0,2.52s-2.43,2.31-3.65,3.46-1.33,1-2.47-.06a8.66,8.66,0,0,0-14.56,4.25,9.1,9.1,0,0,0,4.12,10,8.62,8.62,0,0,0,10.54-1.53c.83-.83,1.44-.92,2.28,0,1.24,1.29,2.59,2.48,3.88,3.74,1,.92,1,1.26,0,2.15a16.55,16.55,0,0,1-9.14,4.38c-5.21.77-10.13-.07-14.42-3.27A15.69,15.69,0,0,1,1018.81,553.54Z" transform="translate(-772 -352)"/><path d="M1096.54,570.52c-2.58-.41-5.76-.89-8.93-1.46-1.41-.26-1.53-.58-1.1-1.9s.93-2.71,1.35-4.08c.3-1,.83-1.29,1.88-1a23.62,23.62,0,0,0,8.34,1.28,2.84,2.84,0,0,0,2.76-1.55,1.76,1.76,0,0,0-.74-2.39c-1.06-.64-2.19-1.15-3.28-1.73a69.75,69.75,0,0,1-7.2-4c-5.83-4.12-4-12.68,1.35-15.4a16.64,16.64,0,0,1,9.55-1.5c2.17.24,4.29.85,6.43,1.28,1,.2,1.32.74,1,1.73-.44,1.4-.85,2.82-1.24,4.24-.29,1.08-.91,1.36-2,1.07a43.12,43.12,0,0,0-5-1.2,8.7,8.7,0,0,0-3.41.15,1.67,1.67,0,0,0-.65,3,12.44,12.44,0,0,0,2.74,1.66c2.15,1,4.4,1.89,6.49,3.06,5.47,3,6.25,8.1,4.17,12.77-1.42,3.21-4.31,4.59-7.54,5.3C1100.14,570.21,1098.65,570.27,1096.54,570.52Z" transform="translate(-772 -352)"/><path d="M911.73,552.64c0,2.64-.08,5.27,0,7.9a2.37,2.37,0,0,0,2.62,2.38,9.41,9.41,0,0,0,2.25-.17c.88-.18,1.39.06,1.62.93.38,1.46.79,2.92,1.15,4.39a1.26,1.26,0,0,1-1.09,1.74,17.45,17.45,0,0,1-9.56-.22,8.7,8.7,0,0,1-6.18-8.61c0-5.07,0-10.15,0-15.22,0-1-.31-1.28-1.3-1.27-2.57,0-2.57,0-2.57-2.55,0-1.08,0-2.16,0-3.24,0-.84.36-1.21,1.21-1.26,2.64-.15,2.63-.17,2.63-2.8q0-3.17,0-6.35c0-1.46.2-1.7,1.61-1.72,2,0,3.92,0,5.88,0,1.11,0,1.57.42,1.56,1.56-.05,2.64,0,5.28,0,7.91,0,1.08.31,1.52,1.44,1.45,1.35-.09,2.71,0,4.07,0,1,0,1.37.46,1.37,1.38,0,1.44,0,2.88,0,4.31a1.23,1.23,0,0,1-1.41,1.38c-1.36,0-2.72.08-4.07,0-1.17-.09-1.43.4-1.4,1.44,0,2.24,0,4.48,0,6.71Z" transform="translate(-772 -352)"/><path d="M969,544V526.64c0-1.53.13-1.66,1.63-1.66h5.75c1.51,0,1.63.12,1.63,1.67q0,15.47,0,30.91a19.09,19.09,0,0,0,.19,3.21,2.33,2.33,0,0,0,2.46,2.15,9.37,9.37,0,0,0,2.37-.15c.89-.19,1.4,0,1.63.9.41,1.5.82,3,1.18,4.51a1.16,1.16,0,0,1-1,1.6,16.61,16.61,0,0,1-10.45-.47,8.31,8.31,0,0,1-5.4-8c-.11-5.75,0-11.5,0-17.25Z" transform="translate(-772 -352)"/><path d="M885.35,541.67c.78-.83,1.33-1.5,2-2.08a10,10,0,0,1,9.39-2.58c1.36.3,1.62.69,1.29,2-.41,1.66-.89,3.31-1.28,5-.24,1-.73,1.44-1.8,1.13a11.82,11.82,0,0,0-1.89-.3,5.43,5.43,0,0,0-6.18,5,23.15,23.15,0,0,0-.24,3.22c0,5,0,9.91,0,14.86,0,1.64-.2,1.83-1.88,1.83-1.88,0-3.75,0-5.63,0-1,0-1.52-.39-1.52-1.5q0-14.61,0-29.23c0-1.14.41-1.6,1.55-1.54a33.07,33.07,0,0,0,3.59,0,1.54,1.54,0,0,1,1.73,1.28C884.67,539.62,885,540.52,885.35,541.67Z" transform="translate(-772 -352)"/><path class="cls-1" d="M944.31,519.7c8.67-.15,14.84,7.34,14.91,14.65a14.88,14.88,0,0,1-29.76.31C929.39,527,935.75,519.57,944.31,519.7Zm.07,3.52a11.29,11.29,0,1,0,11.28,11.36A11.28,11.28,0,0,0,944.38,523.22Z" transform="translate(-772 -352)"/><path class="cls-1" d="M1061,548.9c.59-3.25,3.66-5.26,7.57-5.1a5.68,5.68,0,0,1,5.6,5.1Z" transform="translate(-772 -352)"/><path class="cls-1" d="M863.69,558.21c-.26,4.21-3.69,6.83-7.49,5.64a3.66,3.66,0,0,1-2.7-3.3,3.76,3.76,0,0,1,2.16-3.82,10.29,10.29,0,0,1,7.25-.23C863.3,556.6,863.44,557.62,863.69,558.21Z" transform="translate(-772 -352)"/><path class="cls-1" d="M1002.21,555.92c1.14.15,2.17.23,3.18.44.33.07.84.47.86.76.27,3.61-1.24,7-5.85,7a3.91,3.91,0,0,1-1-7.73A23.24,23.24,0,0,1,1002.21,555.92Z" transform="translate(-772 -352)"/><path d="M944.38,523.22A11.29,11.29,0,1,1,933,534.54,11.23,11.23,0,0,1,944.38,523.22Zm0,3.76a7.53,7.53,0,1,0,7.58,7.58A7.46,7.46,0,0,0,944.35,527Z" transform="translate(-772 -352)"/><path class="cls-1" d="M944.35,527a7.53,7.53,0,1,1-7.59,7.47A7.45,7.45,0,0,1,944.35,527Zm-3.5,7.36a3.51,3.51,0,1,0,7,.26,3.51,3.51,0,0,0-7-.26Z" transform="translate(-772 -352)"/><path d="M940.85,534.34a3.51,3.51,0,1,1,3.37,3.71A3.44,3.44,0,0,1,940.85,534.34Z" transform="translate(-772 -352)"/></svg>