<svg id="Layer_1_Imagem" data-name="Layer 1 Imagem" xmlns="http://www.w3.org/2000/svg" viewBox="0 0 597.12 155.52"><defs><style>.cls-1{fill:#fdfdfd;}.cls-2{fill:#2345df;}.cls-3{fill:#2245df;}.cls-4{fill:#2445df;}.cls-5{fill:#2346df;}.cls-6{fill:#2447e0;}.cls-7{fill:#e0e2e7;}.cls-8{fill:#f3f4fa;}.cls-9{fill:#eceef1;}.cls-10{fill:#edeef1;}.cls-11{fill:#f7f8fc;}.cls-12{fill:#f8f9fd;}.cls-13{fill:#f8fafd;}.cls-14{fill:#2548df;}.cls-15{fill:#ededf0;}.cls-16{fill:#2a4bdf;}</style></defs><path class="cls-1" d="M0,155.52V0H597.12V155.52ZM174.72,58.31v8.36c0,2.12.77,2.88,2.89,2.89h4.75v1.31c0,10.6,0,21.19.1,31.79a16.66,16.66,0,0,0,9,15.29,25.53,25.53,0,0,0,10.18,2.89,37.11,37.11,0,0,0,12.93-1.21,2.15,2.15,0,0,0,1.79-2.78q-1.22-5-2.58-10c-.38-1.37-1-1.73-2.4-1.61s-2.53.34-3.8.48c-3.74.41-6-1.3-6.54-5a13.54,13.54,0,0,1-.15-1.91q0-13.44,0-26.87c0-.75.08-1.51.13-2.36h1.27c3,0,6.08,0,9.11,0,2,0,2.89-.82,2.91-2.82q.06-4.56,0-9.11c0-2-.67-2.66-2.69-2.69-3.12,0-6.24,0-9.36,0h-1.34V36.64c0-2.56-.7-3.24-3.3-3.24H185.51a9.67,9.67,0,0,0-1.2.08,2,2,0,0,0-1.9,2.08c0,.6,0,1.2,0,1.8V54.94H181.2c-1.44,0-2.88,0-4.31.05-1,.08-2,.38-1.95,1.76-.36-.31-.71-.65-1.09-.93a8.31,8.31,0,0,0-2.4-1.63,20.25,20.25,0,0,0-8.56-.31c-5.38.93-9.54,3.88-13,7.91-.34.41-.72.79-1.19,1.3-.61-2-1.19-3.71-1.7-5.47a3.31,3.31,0,0,0-3.53-2.76c-2.28,0-4.56,0-6.84,0-3.45,0-3.91.49-3.91,4v56.63c0,.52,0,1,0,1.55.12,1.64.66,2.29,2.28,2.34,3.16.11,6.32.12,9.47.12,1.6,0,3.2-.09,4.79-.16a1.94,1.94,0,0,0,2-1.92c.07-.63.11-1.27.12-1.91,0-4.6,0-9.2,0-13.79.05-7,0-14.08.26-21.11.21-6.31,4.49-10.29,10.78-10.23a43.92,43.92,0,0,1,5.23.53c2.31.28,3-.13,3.63-2.41.77-2.81,1.43-5.65,2.23-8.45A6.8,6.8,0,0,1,174.72,58.31ZM265.08,96c.85-.09,1.52-.17,2.19-.22C278.84,95,289,90.71,297.14,82.5,308.61,71,312.68,56.9,310,41.06A45.43,45.43,0,0,0,263.08,3.6c-15,.71-27,7.45-35.63,19.63-8.41,11.81-10.64,25-7.68,39.14a80.32,80.32,0,0,0,23,41.75,95.82,95.82,0,0,0,22,15.65c.05,0,.14,0,.31-.08Zm231-6h41.81c.4,0,.8,0,1.2,0,2-.12,2.74-.77,2.64-2.74a76.24,76.24,0,0,0-.78-8.82c-1-5.86-3.08-11.38-7.5-15.48-9.9-9.2-21.46-12-34.34-7.62-8.73,3-15.37,8.6-18.72,17.49a40.17,40.17,0,0,0-2.28,19c1.51,13.15,8.4,22.5,20.87,26.92,14,5,26.73,1.63,38.24-7.27,1.57-1.21,1.64-2.3.39-3.89-2-2.54-4-5.08-6.07-7.59-1.56-1.93-2.22-2-4.33-.59a42.38,42.38,0,0,1-5.88,3.44c-5.07,2.21-10.33,3.09-15.72,1.09C499.71,101.74,495.64,95.85,496,90ZM107.73,112.18c.54,1.74,1,3.25,1.48,4.78a3.37,3.37,0,0,0,3.35,2.56l7.68,0c2.64,0,3.24-.59,3.25-3.25,0-7.87.08-15.75.06-23.63,0-5.92.1-11.84-.23-17.75-.46-8-4.3-14.09-11.59-17.74a37.56,37.56,0,0,0-15.06-3.53c-8.41-.45-16.52,1.28-24.51,3.71-1.58.49-2.1,1.54-1.58,3.19,1,3.2,2,6.38,3.07,9.57a9.56,9.56,0,0,0,.43,1,1.7,1.7,0,0,0,2.24,1c1-.3,2-.58,3-.94a37.69,37.69,0,0,1,16-2.49c8,.6,10.74,6.71,9.26,12.84-2.4-.41-4.79-.91-7.2-1.21A34.11,34.11,0,0,0,79,82.56c-7,3-11.28,8.27-12,15.92s1.76,14.25,8.41,18.56c7.66,5,15.86,5,24.15,1.55A22.62,22.62,0,0,0,107.73,112.18Zm280-30.59L386,81.23c-6.92-1.53-13.83-1.91-20.74.13-9.35,2.75-15,9.43-15.13,18.52-.15,7.49,2.5,13.7,9.19,17.67a24.46,24.46,0,0,0,15.47,3.13c6-.67,11.32-3,15.31-7.75a9.87,9.87,0,0,0,.67-1c.61,1.88,1.09,3.34,1.56,4.82.65,2.08,1.72,2.83,3.88,2.8s4.55-.06,6.83,0c2.83,0,3.62-.65,3.62-3.45q0-18-.1-36a53.64,53.64,0,0,0-.29-6.22c-.91-7.54-4.53-13.29-11.43-16.75-5.45-2.73-11.34-3.49-17.33-3.54A73.49,73.49,0,0,0,356,57.06c-2.25.66-2.85,1.58-2.18,3.79,1,3.2,2,6.38,3.12,9.55.62,1.79,1.31,2.11,3.12,1.55s3.63-1.23,5.47-1.76c4.72-1.36,9.51-2.15,14.43-1.32,4.44.75,7.12,3.28,7.78,7.6A34.81,34.81,0,0,1,387.76,81.59ZM38.22,120.89c.58,0,1.58-.07,2.57-.14a34.22,34.22,0,0,0,21.79-9.62c1.52-1.43,1.55-2.28.08-3.72-2.83-2.77-5.68-5.51-8.58-8.21-1.87-1.75-2.31-1.71-4.2,0-.33.29-.65.59-1,.9a16.88,16.88,0,0,1-24.06-.9c-3.87-4.39-5.06-9.58-4.2-15.3A16.66,16.66,0,0,1,37,69.79a17.79,17.79,0,0,1,12.79,5.39c1.76,1.7,2.45,1.76,4.24.11,2.85-2.63,5.65-5.31,8.43-8,1.64-1.6,1.59-2.67-.09-4.23A34.42,34.42,0,0,0,52.17,56.4a37.18,37.18,0,0,0-22-2.16C21.36,56,13.9,59.8,8.49,67.06A32.89,32.89,0,0,0,2.14,89.75a32,32,0,0,0,11.45,22.94C20.55,118.64,28.84,120.8,38.22,120.89ZM412.73,87.12c.09,1.28.13,2.56.28,3.82,1.3,11.26,6.84,19.8,16.67,25.4,6.62,3.76,13.89,4.82,21.41,4.41a34.27,34.27,0,0,0,22.27-9.63c1.54-1.45,1.54-2.28,0-3.8q-3.81-3.73-7.7-7.39c-2.92-2.72-3-2.65-5.88.07a16.29,16.29,0,0,1-15.62,4.23c-9.13-2.15-14.53-11.18-12.6-20.79a16.92,16.92,0,0,1,22.84-12.62A21.34,21.34,0,0,1,461,75.53c1.27,1.21,2.09,1.27,3.35.12,3.06-2.81,6.1-5.65,9.05-8.57,1.46-1.44,1.42-2.51-.13-3.87A38.59,38.59,0,0,0,467.85,59c-8.79-5.35-18.31-6.52-28.28-4.53C423.52,57.69,412.8,70.8,412.73,87.12ZM569.33,121c1.06-.08,2.67-.12,4.24-.34a43.46,43.46,0,0,0,4.94-.94c10.1-2.6,15.23-8.3,16.08-18.16.57-6.48-1.55-12-7.06-15.69-3.74-2.47-7.93-4.26-11.91-6.37-3.13-1.66-6.27-3.31-9.37-5a2.89,2.89,0,0,1-1.49-3,2.81,2.81,0,0,1,2.17-2.6,14,14,0,0,1,5-.46c4,.68,8,1.7,11.91,2.63,2.36.56,3.35.05,4-2.26.87-3,1.73-5.89,2.58-8.84.58-2,0-3-2.09-3.49q-2.62-.57-5.28-1.09a84.91,84.91,0,0,0-9.41-1.72,36.62,36.62,0,0,0-12,1.21c-6.32,1.65-11.23,5.06-13.77,11.34-3.28,8.11-1.42,17.65,7.1,22.65,2.38,1.39,4.7,2.88,7.14,4.16,3.79,2,7.66,3.78,11.47,5.69,2,1,2.74,2.33,2.4,4.21s-1.69,3-3.8,3.24a28.21,28.21,0,0,1-10.24-.42c-2.77-.63-5.53-1.24-8.3-1.84-2.16-.47-2.88-.07-3.61,2-.81,2.33-1.56,4.69-2.33,7-.24.72-.49,1.44-.66,2.17-.43,1.82,0,2.62,1.86,3.08,1.24.31,2.5.53,3.76.76A103.18,103.18,0,0,0,569.33,121ZM314.05,68.15h.07v2.39c0,10.36.08,20.71,0,31.06,0,8,3.16,13.8,10.62,17,7.07,3,14.32,2.8,21.61,1a2.3,2.3,0,0,0,1.76-3.14c-.76-3.06-1.55-6.11-2.39-9.15-.55-2-1.17-2.3-3.23-2.06a33.69,33.69,0,0,1-5,.37,4.58,4.58,0,0,1-4.63-4,11.85,11.85,0,0,1-.22-2.38q0-32.51,0-65c0-.52,0-1,0-1.56-.17-1.68-.73-2.33-2.42-2.35q-7-.07-13.91,0c-1.45,0-2,.61-2.14,2.05-.09,1.19-.07,2.39-.07,3.59Q314,52,314.05,68.15Z"/><path class="cls-2" d="M265.08,96v23.68c-.17,0-.26.1-.31.08a95.82,95.82,0,0,1-22-15.65,80.32,80.32,0,0,1-23-41.75c-3-14.1-.73-27.33,7.68-39.14,8.67-12.18,20.62-18.92,35.63-19.63A45.43,45.43,0,0,1,310,41.06C312.68,56.9,308.61,71,297.14,82.5,289,90.71,278.84,95,267.27,95.79,266.6,95.84,265.93,95.92,265.08,96Zm-10.7-19.63c.47.22.92.46,1.4.64a28.22,28.22,0,0,0,20.46-.47,15.66,15.66,0,0,0,1.9-.63c13.61-6.6,19.86-21.54,15.05-36A26.44,26.44,0,0,0,277,22.8a27.41,27.41,0,0,0-22.83-.15,36.33,36.33,0,0,0-4,1.92,29.31,29.31,0,0,0-7.87,42.58A25.85,25.85,0,0,0,254.38,76.38Z"/><path class="cls-3" d="M496,90c-.4,5.85,3.67,11.74,9.53,13.92,5.39,2,10.65,1.12,15.72-1.09a42.38,42.38,0,0,0,5.88-3.44c2.11-1.36,2.77-1.34,4.33.59,2,2.51,4.06,5,6.07,7.59,1.25,1.59,1.18,2.68-.39,3.89-11.51,8.9-24.28,12.22-38.24,7.27-12.47-4.42-19.36-13.77-20.87-26.92a40.17,40.17,0,0,1,2.28-19c3.35-8.89,10-14.49,18.72-17.49C512,50.91,523.51,53.75,533.41,63c4.42,4.1,6.51,9.62,7.5,15.48a76.24,76.24,0,0,1,.78,8.82c.1,2-.64,2.62-2.64,2.74-.4,0-.8,0-1.2,0H496Zm1.19-12h25.59a10.62,10.62,0,0,0-6.13-8.59,15.33,15.33,0,0,0-16.59,2.82A8.76,8.76,0,0,0,497.23,78Z"/><path class="cls-2" d="M107.73,112.18a22.62,22.62,0,0,1-8.12,6.41c-8.29,3.5-16.49,3.41-24.15-1.55-6.65-4.31-9.09-10.9-8.41-18.56s5-12.88,12-15.92a34.11,34.11,0,0,1,18.33-2.27c2.41.3,4.8.8,7.2,1.21,1.48-6.13-1.31-12.24-9.26-12.84a37.69,37.69,0,0,0-16,2.49c-1,.36-2,.64-3,.94a1.7,1.7,0,0,1-2.24-1,9.56,9.56,0,0,1-.43-1c-1-3.19-2.08-6.37-3.07-9.57-.52-1.65,0-2.7,1.58-3.19,8-2.43,16.1-4.16,24.51-3.71a37.56,37.56,0,0,1,15.06,3.53c7.29,3.65,11.13,9.71,11.59,17.74.33,5.91.22,11.83.23,17.75,0,7.88,0,15.76-.06,23.63,0,2.66-.61,3.24-3.25,3.25l-7.68,0a3.37,3.37,0,0,1-3.35-2.56C108.76,115.43,108.27,113.92,107.73,112.18ZM104.9,93.34c-1.59-.28-3.14-.63-4.7-.84-3.66-.49-7.27-.36-10.64,1.36a6.82,6.82,0,0,0-4,6.34c0,3,1,5.49,3.86,6.77,5.51,2.5,12.27.55,14.73-5.67C105.16,98.76,104.89,96.13,104.9,93.34Z"/><path class="cls-3" d="M387.76,81.59a34.81,34.81,0,0,0,0-5.12c-.66-4.32-3.34-6.85-7.78-7.6-4.92-.83-9.71,0-14.43,1.32-1.84.53-3.64,1.2-5.47,1.76s-2.5.24-3.12-1.55c-1.08-3.17-2.14-6.35-3.12-9.55-.67-2.21-.07-3.13,2.18-3.79a73.49,73.49,0,0,1,21.56-3.52c6,.05,11.88.81,17.33,3.54,6.9,3.46,10.52,9.21,11.43,16.75a53.64,53.64,0,0,1,.29,6.22q.07,18,.1,36c0,2.8-.79,3.49-3.62,3.45-2.28,0-4.55,0-6.83,0s-3.23-.72-3.88-2.8c-.47-1.48-.95-2.94-1.56-4.82a9.87,9.87,0,0,1-.67,1c-4,4.78-9.27,7.08-15.31,7.75a24.46,24.46,0,0,1-15.47-3.13c-6.69-4-9.34-10.18-9.19-17.67.18-9.09,5.78-15.77,15.13-18.52,6.91-2,13.82-1.66,20.74-.13ZM388,95.87a11.44,11.44,0,0,0,0-1.72,1.13,1.13,0,0,0-.59-.81c-4.81-1.2-9.63-1.65-14.34.31a6.82,6.82,0,0,0-4.32,6.48c-.13,3,.9,5.39,3.61,6.77a10.27,10.27,0,0,0,9.46.21C386.37,104.91,388.2,101.09,388,95.87Z"/><path class="cls-2" d="M38.22,120.89c-9.38-.09-17.67-2.25-24.63-8.2A32,32,0,0,1,2.14,89.75,32.89,32.89,0,0,1,8.49,67.06C13.9,59.8,21.36,56,30.12,54.24A37.18,37.18,0,0,1,52.17,56.4a34.42,34.42,0,0,1,10.19,6.65c1.68,1.56,1.73,2.63.09,4.23-2.78,2.7-5.58,5.38-8.43,8-1.79,1.65-2.48,1.59-4.24-.11A17.79,17.79,0,0,0,37,69.79a16.66,16.66,0,0,0-16.34,14.1c-.86,5.72.33,10.91,4.2,15.3a16.88,16.88,0,0,0,24.06.9c.32-.31.64-.61,1-.9,1.89-1.7,2.33-1.74,4.2,0,2.9,2.7,5.75,5.44,8.58,8.21,1.47,1.44,1.44,2.29-.08,3.72a34.22,34.22,0,0,1-21.79,9.62C39.8,120.82,38.8,120.86,38.22,120.89Z"/><path class="cls-4" d="M412.73,87.12c.07-16.32,10.79-29.43,26.84-32.62,10-2,19.49-.82,28.28,4.53a38.59,38.59,0,0,1,5.38,4.18c1.55,1.36,1.59,2.43.13,3.87-2.95,2.92-6,5.76-9.05,8.57-1.26,1.15-2.08,1.09-3.35-.12a21.34,21.34,0,0,0-6.58-4.71,16.92,16.92,0,0,0-22.84,12.62c-1.93,9.61,3.47,18.64,12.6,20.79A16.29,16.29,0,0,0,459.76,100c2.89-2.72,3-2.79,5.88-.07q3.9,3.64,7.7,7.39c1.56,1.52,1.56,2.35,0,3.8a34.27,34.27,0,0,1-22.27,9.63c-7.52.41-14.79-.65-21.41-4.41-9.83-5.6-15.37-14.14-16.67-25.4C412.86,89.68,412.82,88.4,412.73,87.12Z"/><path class="cls-2" d="M569.33,121a103.18,103.18,0,0,1-16.68-2.07c-1.26-.23-2.52-.45-3.76-.76-1.82-.46-2.29-1.26-1.86-3.08.17-.73.42-1.45.66-2.17.77-2.35,1.52-4.71,2.33-7,.73-2.12,1.45-2.52,3.61-2,2.77.6,5.53,1.21,8.3,1.84a28.21,28.21,0,0,0,10.24.42c2.11-.29,3.46-1.41,3.8-3.24s-.36-3.19-2.4-4.21c-3.81-1.91-7.68-3.72-11.47-5.69-2.44-1.28-4.76-2.77-7.14-4.16-8.52-5-10.38-14.54-7.1-22.65,2.54-6.28,7.45-9.69,13.77-11.34a36.62,36.62,0,0,1,12-1.21A84.91,84.91,0,0,1,583,55.31q2.65.52,5.28,1.09c2,.44,2.67,1.49,2.09,3.49-.85,3-1.71,5.89-2.58,8.84-.68,2.31-1.67,2.82-4,2.26-4-.93-7.91-1.95-11.91-2.63a14,14,0,0,0-5,.46,2.81,2.81,0,0,0-2.17,2.6,2.89,2.89,0,0,0,1.49,3c3.1,1.72,6.24,3.37,9.37,5,4,2.11,8.17,3.9,11.91,6.37,5.51,3.64,7.63,9.21,7.06,15.69-.85,9.86-6,15.56-16.08,18.16a43.46,43.46,0,0,1-4.94.94C572,120.88,570.39,120.92,569.33,121Z"/><path class="cls-2" d="M174.94,56.75c-.07-1.38.92-1.68,1.95-1.76,1.43-.1,2.87,0,4.31-.05h1.16V37.36c0-.6,0-1.2,0-1.8a2,2,0,0,1,1.9-2.08,9.67,9.67,0,0,1,1.2-.08h12.11c2.6,0,3.3.68,3.3,3.24V54.92h1.34c3.12,0,6.24,0,9.36,0,2,0,2.65.66,2.69,2.69q.09,4.55,0,9.11c0,2-.86,2.8-2.91,2.82-3,0-6.07,0-9.11,0h-1.27c-.05.85-.13,1.61-.13,2.36q0,13.44,0,26.87a13.54,13.54,0,0,0,.15,1.91c.56,3.71,2.8,5.42,6.54,5,1.27-.14,2.53-.36,3.8-.48s2,.24,2.4,1.61q1.37,5,2.58,10a2.15,2.15,0,0,1-1.79,2.78,37.11,37.11,0,0,1-12.93,1.21A25.53,25.53,0,0,1,191.5,118a16.66,16.66,0,0,1-9-15.29c-.11-10.6-.07-21.19-.1-31.79V69.56h-4.75c-2.12,0-2.88-.77-2.89-2.89V58.31Z"/><path class="cls-5" d="M314.05,68.15q0-16.14,0-32.27c0-1.2,0-2.4.07-3.59.12-1.44.69-2,2.14-2.05q7-.09,13.91,0c1.69,0,2.25.67,2.42,2.35,0,.52,0,1,0,1.56q0,32.5,0,65a11.85,11.85,0,0,0,.22,2.38,4.58,4.58,0,0,0,4.63,4,33.69,33.69,0,0,0,5-.37c2.06-.24,2.68.06,3.23,2.06.84,3,1.63,6.09,2.39,9.15a2.3,2.3,0,0,1-1.76,3.14c-7.29,1.85-14.54,2.08-21.61-1-7.46-3.19-10.66-9-10.62-17,.06-10.35,0-20.7,0-31.06V68.15Z"/><path class="cls-6" d="M174.94,56.75l-.22,1.56A6.8,6.8,0,0,0,173.58,60c-.8,2.8-1.46,5.64-2.23,8.45-.62,2.28-1.32,2.69-3.63,2.41a43.92,43.92,0,0,0-5.23-.53c-6.29-.06-10.57,3.92-10.78,10.23-.22,7-.21,14.07-.26,21.11,0,4.59,0,9.19,0,13.79,0,.64-.05,1.28-.12,1.91a1.94,1.94,0,0,1-2,1.92c-1.59.07-3.19.16-4.79.16-3.15,0-6.31,0-9.47-.12-1.62,0-2.16-.7-2.28-2.34,0-.51,0-1,0-1.55V58.83c0-3.48.46-3.95,3.91-4,2.28,0,4.56,0,6.84,0A3.31,3.31,0,0,1,147,57.62c.51,1.76,1.09,3.5,1.7,5.47.47-.51.85-.89,1.19-1.3,3.5-4,7.66-7,13-7.91a20.25,20.25,0,0,1,8.56.31,8.31,8.31,0,0,1,2.4,1.63C174.23,56.1,174.58,56.44,174.94,56.75Z"/><path class="cls-7" d="M277,22.8a26.44,26.44,0,0,1,16.23,17.11c4.81,14.47-1.44,29.41-15.05,36a15.66,15.66,0,0,1-1.9.63c-.16-2.17-.33-4.34-.49-6.51.82-.56,1.64-1.12,2.47-1.67a22.82,22.82,0,0,0,6.92-30.49,26.33,26.33,0,0,0-9.66-9.06,14.19,14.19,0,0,0,.25-2.42A4.55,4.55,0,0,1,277,22.8Z"/><path class="cls-8" d="M254.38,76.38a25.85,25.85,0,0,1-12.09-9.23,29.31,29.31,0,0,1,7.87-42.58,36.33,36.33,0,0,1,4-1.92l.27,6.8a19.89,19.89,0,0,0-6.67,5.9,22.82,22.82,0,0,0,0,28.29,29.44,29.44,0,0,0,7.65,6.45Z"/><path class="cls-9" d="M254.4,29.45l-.27-6.8A27.41,27.41,0,0,1,277,22.8a4.55,4.55,0,0,0-1.23,3.6,14.19,14.19,0,0,1-.25,2.42A24.63,24.63,0,0,0,254.4,29.45Z"/><path class="cls-10" d="M254.38,76.38l1-6.29a27.77,27.77,0,0,0,8.88,2.11A26,26,0,0,0,275.75,70c.16,2.17.33,4.34.49,6.51a28.22,28.22,0,0,1-20.46.47C255.3,76.84,254.85,76.6,254.38,76.38Z"/><path class="cls-11" d="M497.23,78a8.76,8.76,0,0,1,2.87-5.77,15.33,15.33,0,0,1,16.59-2.82A10.62,10.62,0,0,1,522.82,78Z"/><path class="cls-12" d="M104.9,93.34c0,2.79.26,5.42-.74,8-2.46,6.22-9.22,8.17-14.73,5.67-2.82-1.28-3.9-3.81-3.86-6.77a6.82,6.82,0,0,1,4-6.34c3.37-1.72,7-1.85,10.64-1.36C101.76,92.71,103.31,93.06,104.9,93.34Z"/><path class="cls-13" d="M388,95.87c.16,5.22-1.67,9-6.21,11.24a10.27,10.27,0,0,1-9.46-.21c-2.71-1.38-3.74-3.82-3.61-6.77a6.82,6.82,0,0,1,4.32-6.48c4.71-2,9.53-1.51,14.34-.31a1.13,1.13,0,0,1,.59.81A11.44,11.44,0,0,1,388,95.87Z"/><path class="cls-14" d="M275.75,70a26,26,0,0,1-11.51,2.16,27.77,27.77,0,0,1-8.88-2.11,29.44,29.44,0,0,1-7.65-6.45,22.82,22.82,0,0,1,0-28.29,19.89,19.89,0,0,1,6.67-5.9,24.63,24.63,0,0,1,21.08-.63,26.33,26.33,0,0,1,9.66,9.06,22.82,22.82,0,0,1-6.92,30.49C277.39,68.92,276.57,69.48,275.75,70Zm4.58-20.52a14.85,14.85,0,0,0-29.7-.07,14.51,14.51,0,0,0,14.56,14.83A14.66,14.66,0,0,0,280.33,49.52Z"/><path class="cls-15" d="M280.33,49.52a14.66,14.66,0,0,1-15.14,14.76,14.51,14.51,0,0,1-14.56-14.83,14.85,14.85,0,0,1,29.7.07Zm-7.4.09c0-4.1-3.3-7.63-7.08-7.61a7.59,7.59,0,0,0-7.75,7.73c0,3.92,3.62,7.21,7.93,7.19C269.51,56.9,272.93,53.28,272.93,49.61Z"/><path class="cls-16" d="M272.93,49.61c0,3.67-3.42,7.29-6.9,7.31-4.31,0-7.93-3.27-7.93-7.19A7.59,7.59,0,0,1,265.85,42C269.63,42,272.92,45.51,272.93,49.61Z"/></svg>